 http://www.imdb.com/title/tt2555426/

Source: Company.Of.Heroes.2013.720p.BluRay.DTS.x264-PublicHD Thanks!

Subs: Arabic, Bosnian, Brazilian, Dutch, English, French, Greek, Hungarian, Portuguese, Romanian, Servian, Spanish and Vietnamese.

Sample and Screens included.

General
Complete name                            : Company of Heroes-720p MP4 AAC x264 BRRip 2013-CC.mp4
Format                                   : MPEG-4
Format profile                           : Base Media
Codec ID                                 : isom
File size                                : 2.83 GiB
Duration                                 : 1h 40mn
Overall bit rate mode                    : Variable
Overall bit rate                         : 4 033 Kbps
Encoded date                             : UTC 2013-02-22 08:33:02

Video
ID                                       : 1
Format                                   : AVC
Format/Info                              : Advanced Video Codec
Format profile                           : High@L4.1
Format settings, CABAC                   : Yes
Format settings, ReFrames                : 5 frames
Codec ID                                 : avc1
Codec ID/Info                            : Advanced Video Coding
Duration                                 : 1h 40mn
Bit rate                                 : 3 703 Kbps
Maximum bit rate                         : 24.9 Mbps
Width                                    : 1 280 pixels
Height                                   : 720 pixels
Display aspect ratio                     : 16:9
Frame rate mode                          : Variable
Frame rate                               : 23.976 fps
Minimum frame rate                       : 16.129 fps
Maximum frame rate                       : 24.390 fps
Color space                              : YUV
Chroma subsampling                       : 4:2:0
Bit depth                                : 8 bits
Scan type                                : Progressive
Bits/(Pixel*Frame)                       : 0.168
Stream size                              : 2.56 GiB (90%)
Writing library                          : x264 core 112

Audio
ID                                       : 2
Format                                   : AAC
Format/Info                              : Advanced Audio Codec
Format profile                           : LC
Codec ID                                 : 40
Duration                                 : 1h 40mn
Bit rate mode                            : Variable
Bit rate                                 : 384 Kbps
Maximum bit rate                         : 541 Kbps
Channel(s)                               : 6 channels
Channel positions                        : Front: L C R, Side: L R, LFE
Sampling rate                            : 48.0 KHz
Compression mode                         : Lossy
Delay relative to video                  : 83ms
Stream size                              : 276 MiB (10%)
Language                                 : English

Enjoy...

Coming soon: Mortal Kombat, Tropa de Elite, Serenity and more...